<?xml version="1.0" encoding="UTF-8"?>
<svg version="1.1" xmlns="http://www.w3.org/2000/svg" width="535" height="535">
<path d="M0 0 C3.26552947 2.45253458 6.16301633 5.06942512 9 8 C9.80953125 8.78375 10.6190625 9.5675 11.453125 10.375 C24.05795911 23.36648546 31.40271565 38.80997658 32 57 C32.02835938 57.84304688 32.05671875 58.68609375 32.0859375 59.5546875 C32.39739139 79.55002728 26.22231859 97.1960799 12.28125 111.7578125 C2.83883301 121.03854427 -6.50765672 127.47125209 -19 132 C-20.4540625 132.5878125 -20.4540625 132.5878125 -21.9375 133.1875 C-39.77503892 137.91990828 -61.00777412 135.31307449 -77 126.3125 C-95.36411622 115.52965092 -107.09303073 100.30109619 -113.4375 79.875 C-118.22472915 59.91784992 -114.68294098 39.44114381 -104.24072266 21.88867188 C-100.55595725 16.27959175 -95.87713377 11.57172255 -91 7 C-90.08992188 6.1440625 -89.17984375 5.288125 -88.2421875 4.40625 C-63.61175968 -17.13639824 -26.92168271 -17.05890144 0 0 Z M-73 20 C-73 20.66 -73 21.32 -73 22 C-73.86625 22.36544922 -73.86625 22.36544922 -74.75 22.73828125 C-83.63824793 27.72248973 -88.59279683 37.79184507 -91.25 47.1875 C-95.20882877 62.38513882 -92.45122566 76.06848195 -85.01171875 89.73046875 C-79.84105741 98.13404844 -72.70011492 103.56888557 -64 108 C-63.23171875 108.4021875 -62.4634375 108.804375 -61.671875 109.21875 C-49.88779217 114.68156985 -35.98361053 113.98332135 -23.87109375 109.9609375 C-17.70593677 107.56894919 -11.72727355 104.7411773 -7 100 C-7 99.34 -7 98.68 -7 98 C-5.68 97.34 -4.36 96.68 -3 96 C-3 95.34 -3 94.68 -3 94 C-2.34 94 -1.68 94 -1 94 C7.44414968 82.87784857 10.83245172 69.95565919 9.78125 56.12109375 C7.36063576 40.13107468 -0.18362121 27.71631314 -13 18 C-17.75066862 14.99218022 -22.19696249 13.05691869 -27.6875 11.75 C-28.38738037 11.58306641 -29.08726074 11.41613281 -29.80834961 11.24414062 C-44.42657828 7.9707797 -61.10187486 10.201544 -73 20 Z " fill="#EEF0F2" transform="translate(309,206)"/>
<path d="M0 0 C4.46633201 2.18937844 6.55859621 4.3015713 8.40658569 8.91671753 C9.52925258 12.85803173 9.40560776 16.80873401 9.36328125 20.87890625 C9.36377975 21.80920151 9.36427826 22.73949677 9.36479187 23.69798279 C9.36246157 25.65536649 9.35279502 27.61275377 9.33618164 29.57006836 C9.31254549 32.55675174 9.3156344 35.54254337 9.32226562 38.52929688 C9.31668938 40.43750529 9.30957983 42.34570997 9.30078125 44.25390625 C9.30214836 45.58537437 9.30214836 45.58537437 9.30354309 46.94374084 C9.23656536 52.83095261 9.05541123 57.88749401 4.75 62.3125 C1.56768135 64.26528645 -0.25560344 65 -4 65 C-7.59014405 63.69866847 -10.14298209 62.04367926 -12.5715332 59.08618164 C-14.68860115 54.51228729 -14.46775138 50.20700563 -14.46875 45.22265625 C-14.47636353 44.17855087 -14.48397705 43.1344455 -14.49182129 42.05870056 C-14.50261044 39.85401802 -14.50548023 37.64928442 -14.50097656 35.44458008 C-14.50000431 32.0774183 -14.5416403 28.71253605 -14.5859375 25.34570312 C-14.5911448 23.20052557 -14.59383269 21.05534012 -14.59375 18.91015625 C-14.61014526 17.90686783 -14.62654053 16.90357941 -14.64343262 15.86988831 C-14.59895973 11.35634732 -14.55210172 8.04937408 -11.65039062 4.44311523 C-7.62090985 0.72876242 -5.4873136 -0.64556631 0 0 Z " fill="#EEF0F2" transform="translate(270,360)"/>
<path d="M0 0 C1.35677101 -0.01429802 1.35677101 -0.01429802 2.74095154 -0.02888489 C3.71081497 -0.02797348 4.68067841 -0.02706207 5.67993164 -0.02612305 C6.68343155 -0.03040817 7.68693146 -0.0346933 8.72084045 -0.03910828 C10.84155524 -0.04484715 12.9622897 -0.0453551 15.08300781 -0.04101562 C18.32464234 -0.03785685 21.56536312 -0.06131669 24.80688477 -0.08666992 C26.86873257 -0.08894309 28.93058283 -0.08964633 30.99243164 -0.08862305 C31.96027084 -0.09783279 32.92811005 -0.10704254 33.92527771 -0.11653137 C40.45854343 -0.07169733 43.93258747 0.87141455 48.71508789 5.5246582 C50.89639973 9.07938861 50.91637812 11.1643364 50.40258789 15.2746582 C48.98935273 18.93244332 47.86519121 20.02599765 44.39672852 21.89038086 C39.83039367 23.7425872 35.42981339 23.70661465 30.55883789 23.6730957 C29.16695251 23.67740097 29.16695251 23.67740097 27.74694824 23.68179321 C25.79377631 23.68382597 23.84058365 23.67835153 21.88745117 23.66577148 C18.91156138 23.64970664 15.9370296 23.66564714 12.96118164 23.68481445 C11.05623075 23.68283188 9.1512807 23.67898792 7.24633789 23.6730957 C6.36385376 23.6791684 5.48136963 23.68524109 4.57214355 23.6914978 C-0.90247423 23.62970204 -4.75864964 22.89526608 -9.59741211 20.2746582 C-12.64631554 16.92086443 -13.59741211 15.26650398 -13.59741211 10.7121582 C-12.33782464 6.38232627 -10.66163613 3.52426985 -6.74803162 1.15510559 C-4.33881628 0.16879102 -2.59670428 0.01508284 0 0 Z " fill="#EEEFF1" transform="translate(373.597412109375,255.725341796875)"/>
<path d="M0 0 C1.52861916 -0.00929787 1.52861916 -0.00929787 3.08811951 -0.01878357 C5.23378549 -0.02586111 7.37950662 -0.02274401 9.52514648 -0.01000977 C12.80229748 0.00387956 16.07660431 -0.03027575 19.35351562 -0.06835938 C21.44401111 -0.06931044 23.53451016 -0.06745242 25.625 -0.0625 C26.60014053 -0.07575821 27.57528107 -0.08901642 28.57997131 -0.10267639 C33.08696787 -0.04113924 36.25877494 0.08127405 39.84741211 2.98071289 C43.39185512 6.80149619 43.65079228 9.23997936 43.59375 14.30859375 C43.02878919 17.97766506 41.15431011 19.43371426 38.24609375 21.56640625 C33.48962381 24.12430014 28.78848918 23.85572161 23.52734375 23.83203125 C22.12409851 23.83490143 22.12409851 23.83490143 20.69250488 23.83782959 C18.7189914 23.83918768 16.74546886 23.83551753 14.77197266 23.82714844 C11.7566312 23.81644366 8.7418855 23.82705654 5.7265625 23.83984375 C3.80598827 23.83852209 1.88541441 23.83595956 -0.03515625 23.83203125 C-0.93423706 23.83607971 -1.83331787 23.84012817 -2.75964355 23.84429932 C-8.99710395 23.7977289 -12.89442215 23.34324662 -17.56640625 18.87890625 C-20.13113384 14.99517589 -20.34557535 13.13071071 -19.75390625 8.56640625 C-18.89777653 5.23701289 -17.68810593 4.51954602 -14.83618164 2.48852539 C-10.04404494 -0.16475539 -5.36884432 -0.02736442 0 0 Z " fill="#EEEFF1" transform="translate(130.75390625,255.43359375)"/>
<path d="M0 0 C3.04580682 1.49338978 5.08863947 3.19147025 7 6 C8.05035399 9.60121367 7.8558667 12.3723691 7 16 C5.86450195 17.76269531 5.86450195 17.76269531 4.30078125 19.453125 C3.66849609 20.13810059 3.03621094 20.82307617 2.38476562 21.52880859 C-2.31855933 26.40258575 -7.05431015 31.24025314 -11.84399414 36.02929688 C-13.69902403 37.88653777 -15.54587418 39.75167204 -17.39257812 41.6171875 C-18.5776359 42.80517559 -19.76316593 43.99269283 -20.94921875 45.1796875 C-21.49720627 45.73486053 -22.04519379 46.29003357 -22.60978699 46.86203003 C-26.46457513 50.69390804 -28.98667222 52.73901307 -34.375 53.4375 C-38.03868179 52.99533151 -40.12114544 52.24240067 -42.83203125 49.69140625 C-45.05230025 46.4761003 -45.47808947 42.82471573 -45 39 C-42.61012445 34.18404674 -39.03452348 30.77733093 -35.25 27.0546875 C-34.59547852 26.40299591 -33.94095703 25.75130432 -33.26660156 25.0798645 C-31.18240124 23.00681445 -29.09135029 20.94083427 -27 18.875 C-25.59328953 17.47832821 -24.18703454 16.08119751 -22.78125 14.68359375 C-19.68486032 11.60681491 -16.58414294 8.53447585 -13.47949219 5.46603394 C-12.45198243 4.44787096 -11.4378413 3.41610937 -10.43457031 2.37405396 C-7.23983826 -0.68591053 -4.26716187 -0.48967431 0 0 Z " fill="#EEF0F2" transform="translate(375,152)"/>
<path d="M0 0 C3.36683682 2.00406954 6.47045352 4.13261631 7.57373047 8.02319336 C8.16666455 12.16388364 8.18273589 16.25132158 8.203125 20.4296875 C8.20882507 21.33824493 8.21452515 22.24680237 8.22039795 23.18289185 C8.22982274 25.10092004 8.23637189 27.01896425 8.24023438 28.93701172 C8.24994362 31.85803665 8.28099232 34.77835861 8.3125 37.69921875 C8.31903057 39.56770418 8.32428083 41.43619461 8.328125 43.3046875 C8.3404718 44.17157196 8.3528186 45.03845642 8.36553955 45.93161011 C8.34301653 52.11720385 7.47889983 57.04438866 3.375 61.9375 C-0.38570962 63.61992272 -3.95760525 63.65688915 -8 63 C-11.61550494 60.84608216 -13.40937855 58.84237833 -15 55 C-15.26069641 52.8130188 -15.26069641 52.8130188 -15.2746582 50.41845703 C-15.28419022 49.51717072 -15.29372223 48.6158844 -15.30354309 47.68728638 C-15.30263168 46.72056 -15.30172028 45.75383362 -15.30078125 44.7578125 C-15.30506638 43.75668427 -15.3093515 42.75555603 -15.31376648 41.72409058 C-15.31950585 39.60757198 -15.32001294 37.49103365 -15.31567383 35.37451172 C-15.31251842 32.14386127 -15.33596257 28.91413071 -15.36132812 25.68359375 C-15.36360167 23.62500115 -15.36430436 21.5664061 -15.36328125 19.5078125 C-15.372491 18.54513458 -15.38170074 17.58245667 -15.39118958 16.59060669 C-15.35494461 11.30939053 -14.99235961 7.55062625 -12 3 C-8.13674555 -0.21937871 -4.94186336 -0.76684087 0 0 Z " fill="#EEF0F2" transform="translate(271,111)"/>
<path d="M0 0 C7.2272804 5.17696516 13.39471644 12.24176611 19.65698242 18.52661133 C21.45442236 20.32947341 23.25722661 22.12684985 25.06054688 23.92382812 C26.20605047 25.06999147 27.35124439 26.21646442 28.49609375 27.36328125 C29.03455429 27.89971756 29.57301483 28.43615387 30.12779236 28.98884583 C33.53907055 32.42186274 34.88561364 33.85613643 35.375 38.75 C35.35058775 42.10058068 34.75601354 43.84894532 32.625 46.4375 C29.19579514 49.78505712 27.06856613 50.52922495 22.21484375 50.4765625 C17.82215286 49.53139797 15.09139877 46.06681508 12 43 C10.09822613 41.40135517 8.17603974 39.83092524 6.25 38.26171875 C5 37 5 37 5 35 C4.34 35 3.68 35 3 35 C1.51953125 33.4609375 1.51953125 33.4609375 -0.1875 31.375 C-2.53440883 28.59782455 -4.86313503 26.16370954 -7.6875 23.875 C-11.93854305 20.33087197 -14.4612086 16.88576991 -16 11.5 C-16 7.04115888 -14.88941036 5.34563305 -12 2 C-7.89407433 -1.44009989 -5.08180277 -1.55038051 0 0 Z " fill="#EEF0F2" transform="translate(170,155)"/>
<path d="M0 0 C4.25340203 0.95334873 7.27242233 2.00906311 9.9375 5.5625 C10.94016165 8.84393813 10.97856638 11.39469169 10.625 14.8125 C7.74354122 19.8255028 4.03749598 23.67869667 -0.0390625 27.70703125 C-0.67234467 28.33985519 -1.30562683 28.97267914 -1.95809937 29.62467957 C-3.2887059 30.95228069 -4.62172625 32.2774665 -5.95703125 33.6003418 C-8.00583562 35.63078331 -10.04641846 37.66922032 -12.0859375 39.70898438 C-13.38233975 41.00047472 -14.67919872 42.29150681 -15.9765625 43.58203125 C-16.58803131 44.19238724 -17.19950012 44.80274323 -17.82949829 45.43159485 C-21.5579203 49.11810477 -23.45407112 50.9578821 -28.6875 51.125 C-32.21041599 51.09663514 -33.26858919 50.87900675 -36.375 48.9375 C-39.56973595 45.54309305 -39.94136046 42.88512222 -39.80371094 38.32666016 C-39.31219818 35.44420093 -38.63992208 34.46541846 -36.671875 32.34375 C-36.03636719 31.65651855 -35.40085938 30.96928711 -34.74609375 30.26123047 C-30.17169189 25.53704898 -25.56163627 20.85197147 -20.90332031 16.21044922 C-19.1114494 14.42399032 -17.32505206 12.63218045 -15.5390625 10.83984375 C-14.39615426 9.69759546 -13.25293632 8.55565695 -12.109375 7.4140625 C-11.57809998 6.88076324 -11.04682495 6.34746399 -10.49945068 5.79800415 C-4.41751104 -0.24541728 -4.41751104 -0.24541728 0 0 Z " fill="#EEF0F2" transform="translate(194.375,329.1875)"/>
<path d="M0 0 C4.06148213 2.1518403 7.12258354 5.01703249 10.0390625 8.53515625 C12.94446209 11.91226417 16.02381802 14.98058212 19.27734375 18.0234375 C20.20224609 18.9 21.12714844 19.7765625 22.08007812 20.6796875 C23.99567847 22.48661059 25.92831989 24.27562566 27.87695312 26.046875 C35.62519311 33.48431296 35.62519311 33.48431296 35.78125 39.47265625 C35.49031265 43.18023292 35.00165033 43.99792651 32.5625 47.0625 C31.716875 47.701875 30.87125 48.34125 30 49 C29.67 49.33 29.34 49.66 29 50 C25.25755947 50.720645 21.51211221 50.96988178 18.21826172 48.85717773 C17.64865723 48.32552002 17.07905273 47.7938623 16.4921875 47.24609375 C15.80535889 46.60978027 15.11853027 45.9734668 14.41088867 45.31787109 C13.61529541 44.55297363 12.81970215 43.78807617 12 43 C11.53195953 42.55529358 11.06391907 42.11058716 10.58169556 41.65240479 C7.31355008 38.54582361 4.08571397 35.40126766 0.88012695 32.23022461 C-0.25195098 31.11480208 -1.38938047 30.00478608 -2.53198242 28.90014648 C-4.20694467 27.2802423 -5.8645789 25.64421952 -7.51953125 24.00390625 C-8.02579544 23.52031143 -8.53205963 23.03671661 -9.05366516 22.53846741 C-12.92028918 18.64861747 -14.51704236 15.18423475 -16 10 C-14.52777681 5.21527463 -12.06296652 2.81282298 -8 0 C-4.9771342 -1.5114329 -3.24627072 -0.85750547 0 0 Z " fill="#EEF0F2" transform="translate(345,330)"/>
</svg>
